<?xml version="1.0" encoding="iso-8859-1"?>
<!-- Uploaded to: SVG Repo, www.svgrepo.com, Generator: SVG Repo Mixer Tools -->
<svg version="1.1" id="Layer_1" xmlns="http://www.w3.org/2000/svg" xmlns:xlink="http://www.w3.org/1999/xlink" 
	 viewBox="0 0 512 512" xml:space="preserve">
<path style="fill:#008CCB;" d="M285.236,225.055c34.781,11.778,74.265,9.098,108.565-10.707
	c34.301-19.804,56.364-52.656,63.554-88.667l-97.313,30.197L285.236,225.055z"/>
<path style="fill:#74C8EE;" d="M348.79,136.388c-34.301,19.804-56.364,52.656-63.554,88.667l172.12-99.374
	C422.574,113.904,383.091,116.583,348.79,136.388z"/>
<path style="fill:#008CCB;" d="M54.644,125.681c7.191,36.011,29.254,68.863,63.554,88.667
	c34.301,19.805,73.784,22.484,108.565,10.707l-74.807-69.177L54.644,125.681z"/>
<path style="fill:#74C8EE;" d="M163.21,136.388c-34.301-19.805-73.784-22.484-108.565-10.707l172.12,99.374
	C219.574,189.044,197.51,156.192,163.21,136.388z"/>
<polygon style="fill:#008CCB;" points="296.481,228.308 288.041,213.69 264.44,227.317 264.44,101.275 247.56,101.275 
	247.56,227.317 223.959,213.69 215.519,228.308 247.56,246.807 247.56,298.198 264.44,298.198 264.44,246.807 "/>
<path style="fill:#E0315B;" d="M289.758,8.525L256,135.033c37.288,0,67.516-30.228,67.516-67.516c0-37.289,0-67.516,0-67.516
	C311.296,0,299.802,3.095,289.758,8.525z"/>
<path style="fill:#EA5A7D;" d="M289.758,67.516V8.525C273.945,17.075,261.732,31.43,256,48.747C246.628,20.432,219.943,0,188.484,0
	c0,0,0,30.227,0,67.516c0,37.288,30.228,67.516,67.516,67.516C274.645,135.033,289.758,104.805,289.758,67.516z"/>
<polygon style="fill:#E64A55;" points="147.113,315.077 153.071,365.714 306.637,388.22 306.637,512 340.396,512 364.887,315.077 
	"/>
<g>
	<polygon style="fill:#ED6350;" points="153.071,365.714 171.604,512 306.637,512 325.171,365.714 	"/>
	<polygon style="fill:#ED6350;" points="346.022,275.692 323.517,303.824 346.022,331.956 379.78,331.956 379.78,275.692 	"/>
</g>
<rect x="132.22" y="275.692" style="fill:#F37C4A;" width="213.802" height="56.264"/>
<g>
	<circle style="fill:#E64A55;" cx="208.817" cy="443.921" r="8.44"/>
	<circle style="fill:#E64A55;" cx="242.576" cy="460.8" r="8.44"/>
</g>
</svg>