<svg xmlns="http://www.w3.org/2000/svg" xmlns:xlink="http://www.w3.org/1999/xlink" width="500" zoomAndPan="magnify" viewBox="0 0 375 374.999991" height="500" preserveAspectRatio="xMidYMid meet" version="1.0"><defs><g/><clipPath id="d8874cd282"><path d="M 114.863281 144.113281 L 148 144.113281 L 148 202.957031 L 114.863281 202.957031 Z M 114.863281 144.113281 " clip-rule="nonzero"/></clipPath><clipPath id="4335ea30a8"><path d="M 136.574219 145.574219 C 127.351562 152.324219 124.949219 154.726562 123.148438 157.125 C 121.574219 159.375 119.101562 162.675781 119.324219 164.175781 C 119.398438 165 119.851562 165.375 120.824219 165.898438 C 123.75 167.476562 137.476562 167.398438 141.976562 169.875 C 144.675781 171.300781 146.476562 173.476562 147.375 175.351562 C 148.050781 176.773438 147.898438 177.976562 147.824219 179.851562 C 147.75 182.851562 146.699219 188.773438 145.726562 191.625 C 145.125 193.351562 144.75 194.398438 143.625 195.523438 C 142.273438 196.949219 139.574219 198 137.550781 199.050781 C 135.75 199.949219 134.25 200.699219 132.226562 201.300781 C 129.824219 202.050781 126.523438 203.175781 124.050781 202.875 C 121.875 202.648438 118.875 201.375 118.050781 200.324219 C 117.601562 199.648438 118.199219 198.75 117.898438 198.226562 C 117.601562 197.851562 117 197.925781 116.625 197.476562 C 116.023438 196.875 114.976562 195 115.050781 194.25 C 115.050781 193.875 115.351562 193.425781 115.574219 193.351562 C 115.800781 193.273438 116.324219 193.5 116.398438 193.726562 C 116.476562 194.023438 116.023438 194.773438 115.800781 194.851562 C 115.574219 194.851562 114.976562 194.25 114.976562 194.101562 C 115.050781 193.875 115.875 193.5 116.398438 193.648438 C 117.226562 193.949219 118.726562 196.574219 119.101562 197.699219 C 119.398438 198.449219 118.875 199.199219 119.324219 199.726562 C 120 200.625 122.699219 201.226562 123.898438 201.375 C 124.648438 201.523438 125.023438 201.375 125.773438 201.226562 C 127.199219 201 129.523438 200.625 131.625 199.949219 C 134.25 199.050781 138.074219 197.101562 140.023438 196.050781 C 141.074219 195.523438 141.75 195.375 142.425781 194.699219 C 143.175781 193.875 143.699219 192.824219 144.226562 191.324219 C 145.125 188.699219 146.175781 182.625 146.324219 179.851562 C 146.476562 178.351562 146.476562 177.074219 146.175781 176.175781 C 145.949219 175.574219 145.726562 175.351562 145.273438 174.824219 C 144.375 173.773438 142.949219 171.976562 140.699219 170.851562 C 136.574219 168.898438 124.273438 168.523438 121.050781 167.324219 C 119.925781 166.875 119.398438 166.574219 118.875 166.050781 C 118.351562 165.523438 117.824219 165 117.824219 164.175781 C 117.824219 162.375 120.375 158.476562 122.175781 156 C 123.976562 153.449219 126.375 151.125 128.773438 149.101562 C 131.023438 147.226562 134.550781 144.375 135.898438 144.226562 C 136.425781 144.148438 136.875 144.375 136.949219 144.601562 C 137.023438 144.824219 136.574219 145.574219 136.574219 145.574219 " clip-rule="nonzero"/></clipPath><clipPath id="99f1c7b4fb"><path d="M 123.378906 140.695312 L 128.898438 140.695312 L 128.898438 213.324219 L 123.378906 213.324219 Z M 123.378906 140.695312 " clip-rule="nonzero"/></clipPath><clipPath id="0b0df00d80"><path d="M 125.398438 141.449219 C 125.625 166.273438 126.449219 167.851562 126.75 171.824219 C 127.199219 178.726562 126.074219 193.125 126.75 200.625 C 127.125 205.5 129.300781 210.898438 128.773438 212.476562 C 128.625 213 128.324219 213.226562 128.023438 213.300781 C 127.800781 213.300781 127.351562 212.925781 127.351562 212.699219 C 127.273438 212.476562 127.648438 211.875 127.875 211.800781 C 128.101562 211.726562 128.699219 212.175781 128.773438 212.398438 C 128.851562 212.625 128.550781 213.148438 128.324219 213.226562 C 128.101562 213.300781 127.648438 213.148438 127.351562 212.773438 C 126.300781 211.5 125.699219 205.574219 125.25 200.699219 C 124.574219 193.125 125.699219 178.800781 125.25 171.824219 C 124.949219 167.851562 124.125 166.273438 123.898438 162.601562 C 123.449219 156.976562 123.074219 143.625 123.898438 141.449219 C 124.050781 141 124.273438 140.699219 124.574219 140.699219 C 124.800781 140.699219 125.398438 141.449219 125.398438 141.449219 " clip-rule="nonzero"/></clipPath><clipPath id="d7215b91c5"><path d="M 170.796875 152.242188 L 214.957031 152.242188 L 214.957031 214.882812 L 170.796875 214.882812 Z M 170.796875 152.242188 " clip-rule="nonzero"/></clipPath><clipPath id="c8ab12fe41"><path d="M 176.550781 152.324219 C 191.324219 154.273438 192.148438 154.425781 193.574219 155.023438 C 195.300781 155.699219 197.476562 156.601562 199.125 158.023438 C 200.925781 159.601562 202.425781 161.699219 203.699219 164.25 C 205.199219 167.398438 206.175781 172.425781 206.773438 175.800781 C 207.226562 178.425781 207.824219 180.898438 207.375 182.851562 C 206.925781 184.5 205.875 185.699219 204.898438 186.898438 C 203.851562 188.175781 203.023438 188.699219 201.375 190.125 C 197.851562 193.125 187.875 201.898438 183.75 203.925781 C 181.875 204.824219 180.976562 204.898438 179.25 205.050781 C 177 205.199219 172.5 205.351562 171.449219 204.375 C 170.851562 203.851562 170.925781 202.800781 171.074219 202.125 C 171.226562 201.375 171.523438 200.476562 172.273438 199.949219 C 173.699219 199.125 176.925781 199.050781 179.925781 199.5 C 184.574219 200.175781 193.425781 204.601562 197.476562 205.648438 C 199.5 206.175781 200.550781 205.648438 202.125 206.398438 C 204.300781 207.300781 206.476562 210.375 208.726562 211.5 C 210.675781 212.550781 213.976562 212.625 214.648438 213.300781 C 214.875 213.601562 214.949219 213.976562 214.800781 214.199219 C 214.726562 214.425781 214.050781 214.648438 213.824219 214.574219 C 213.601562 214.425781 213.375 213.75 213.523438 213.523438 C 213.675781 213.300781 214.425781 213.148438 214.574219 213.300781 C 214.726562 213.449219 214.5 214.425781 214.125 214.648438 C 213.449219 215.023438 211.800781 214.648438 210.375 214.050781 C 207.898438 213.074219 203.625 208.800781 201.074219 207.75 C 199.5 207.148438 198.75 207.523438 196.949219 207.074219 C 193.125 206.023438 184.125 201.675781 179.773438 201 C 177.226562 200.550781 174.75 200.476562 173.550781 201.074219 C 172.949219 201.449219 172.574219 202.199219 172.574219 202.648438 C 172.574219 203.023438 172.726562 203.398438 173.101562 203.550781 C 174.375 204.226562 179.324219 204.074219 182.851562 202.726562 C 188.101562 200.625 196.273438 192.898438 200.324219 189.074219 C 202.875 186.675781 205.125 185.023438 205.875 182.773438 C 206.550781 180.675781 205.726562 178.648438 205.351562 176.175781 C 204.75 172.949219 203.773438 168.074219 202.425781 165 C 201.300781 162.675781 199.949219 160.800781 198.375 159.300781 C 196.875 157.949219 194.925781 157.125 193.273438 156.449219 C 191.925781 155.851562 191.023438 155.699219 189.300781 155.398438 C 186.226562 154.800781 177.824219 154.726562 176.398438 153.824219 C 175.949219 153.523438 175.800781 153.226562 175.800781 153 C 175.875 152.773438 176.550781 152.324219 176.550781 152.324219 " clip-rule="nonzero"/></clipPath><clipPath id="e7595a7eb9"><path d="M 179.921875 172.796875 L 221.042969 172.796875 L 221.042969 175.441406 L 179.921875 175.441406 Z M 179.921875 172.796875 " clip-rule="nonzero"/></clipPath><clipPath id="137d91f02d"><path d="M 180.675781 173.476562 C 220.800781 173.023438 221.023438 173.398438 221.023438 173.699219 C 221.023438 173.925781 220.574219 174.300781 220.273438 174.300781 C 220.050781 174.300781 219.523438 173.773438 219.523438 173.550781 C 219.601562 173.25 220.425781 172.800781 220.648438 172.875 C 220.800781 173.023438 220.949219 173.925781 220.800781 174.148438 C 220.648438 174.300781 219.675781 174.074219 219.601562 173.851562 C 219.523438 173.625 220.050781 172.875 220.273438 172.800781 C 220.5 172.800781 221.023438 173.398438 221.023438 173.699219 C 221.023438 173.925781 220.800781 174.148438 220.273438 174.300781 C 218.324219 175.125 208.949219 174.898438 202.726562 174.976562 C 195.824219 175.125 182.925781 175.875 180.675781 174.976562 C 180.226562 174.824219 179.925781 174.601562 179.925781 174.375 C 179.925781 174.074219 180.675781 173.476562 180.675781 173.476562 " clip-rule="nonzero"/></clipPath><clipPath id="a9b9c8a523"><path d="M 168.976562 153.1875 L 226.539062 153.1875 L 226.539062 157.835938 L 168.976562 157.835938 Z M 168.976562 153.1875 " clip-rule="nonzero"/></clipPath><clipPath id="d69952b764"><path d="M 169.726562 155.773438 C 192.976562 155.476562 193.425781 154.800781 195.074219 154.5 C 197.773438 154.050781 201.601562 153.976562 205.648438 153.824219 C 211.273438 153.601562 223.648438 152.625 225.75 153.675781 C 226.273438 153.976562 226.574219 154.5 226.5 154.726562 C 226.351562 154.949219 225.449219 155.175781 225.226562 154.949219 C 225.074219 154.800781 225.226562 153.824219 225.449219 153.75 C 225.675781 153.675781 226.5 154.125 226.5 154.425781 C 226.574219 154.648438 226.273438 154.949219 225.75 155.175781 C 223.648438 156.074219 211.726562 155.101562 205.875 155.324219 C 201.375 155.476562 196.351562 155.550781 193.800781 156.148438 C 192.601562 156.449219 192.523438 156.976562 191.101562 157.199219 C 187.425781 157.949219 171.976562 158.101562 169.726562 157.273438 C 169.273438 157.050781 168.976562 156.824219 168.976562 156.601562 C 168.976562 156.300781 169.726562 155.773438 169.726562 155.773438 " clip-rule="nonzero"/></clipPath><clipPath id="3b55918c0c"><path d="M 136.40625 82.851562 L 199.617188 82.851562 L 199.617188 125.355469 L 136.40625 125.355469 Z M 136.40625 82.851562 " clip-rule="nonzero"/></clipPath><clipPath id="e595e3415c"><path d="M 137.25 82.945312 C 150.148438 83.320312 150.75 83.996094 151.574219 84.820312 C 152.625 85.796875 153.675781 86.546875 154.5 88.570312 C 156.601562 94.046875 151.273438 116.019531 157.648438 121.871094 C 164.699219 128.246094 195.976562 124.046875 198.074219 121.945312 C 198.449219 121.570312 198.300781 121.195312 198.148438 120.671875 C 197.851562 119.621094 196.050781 118.347656 195.449219 116.472656 C 194.476562 113.769531 195.148438 108.894531 194.550781 105.371094 C 194.023438 102.144531 191.851562 97.644531 192.148438 96.296875 C 192.226562 95.847656 192.523438 95.546875 192.75 95.472656 C 192.976562 95.472656 193.5 95.695312 193.648438 95.996094 C 193.726562 96.445312 193.125 97.570312 192.675781 97.945312 C 192.226562 98.246094 191.699219 98.320312 191.101562 98.320312 C 190.273438 98.246094 189.75 97.644531 188.25 97.421875 C 183.898438 96.746094 167.398438 96.894531 160.875 97.421875 C 157.125 97.722656 153.300781 99.445312 152.25 98.769531 C 151.800781 98.546875 151.574219 97.644531 151.726562 97.496094 C 151.875 97.347656 152.925781 97.722656 153 97.945312 C 153.074219 98.171875 152.25 98.847656 152.023438 98.769531 C 151.875 98.695312 151.574219 97.796875 151.800781 97.421875 C 152.550781 96.445312 157.050781 96.222656 160.875 95.921875 C 167.476562 95.394531 184.273438 95.769531 188.324219 95.921875 C 189.449219 95.996094 189.976562 95.847656 190.5 96.144531 C 190.949219 96.371094 191.101562 97.269531 191.398438 97.195312 C 191.773438 97.195312 192.148438 95.621094 192.601562 95.546875 C 192.976562 95.472656 193.574219 95.769531 194.023438 96.371094 C 195 97.644531 195.601562 102.144531 196.050781 105.371094 C 196.574219 108.820312 196.050781 113.695312 196.949219 116.472656 C 197.550781 118.421875 199.5 119.695312 199.574219 120.972656 C 199.574219 121.871094 199.425781 122.695312 198.523438 123.296875 C 195.148438 125.472656 172.574219 123.445312 165.449219 123.371094 C 162 123.371094 159.300781 123.746094 157.800781 123.296875 C 157.125 123.070312 156.824219 123.070312 156.375 122.394531 C 154.574219 119.320312 154.648438 96.597656 153.449219 91.269531 C 153.074219 89.394531 152.851562 88.644531 152.175781 87.519531 C 151.351562 86.320312 150.449219 85.046875 148.800781 84.445312 C 146.175781 83.394531 138.449219 85.121094 137.023438 84.371094 C 136.648438 84.222656 136.425781 83.847656 136.5 83.621094 C 136.5 83.320312 137.25 82.945312 137.25 82.945312 " clip-rule="nonzero"/></clipPath><clipPath id="8abd7b442e"><path d="M 161.113281 124.640625 L 175.046875 124.640625 L 175.046875 131.476562 L 161.113281 131.476562 Z M 161.113281 124.640625 " clip-rule="nonzero"/></clipPath><clipPath id="2b196c3ff3"><path d="M 168.074219 124.640625 C 164.230469 124.640625 161.113281 126.171875 161.113281 128.058594 C 161.113281 129.945312 164.230469 131.476562 168.074219 131.476562 C 171.917969 131.476562 175.035156 129.945312 175.035156 128.058594 C 175.035156 126.171875 171.917969 124.640625 168.074219 124.640625 Z M 168.074219 124.640625 " clip-rule="nonzero"/></clipPath><clipPath id="8a3ba327d2"><path d="M 176.476562 124.640625 L 190.410156 124.640625 L 190.410156 131.476562 L 176.476562 131.476562 Z M 176.476562 124.640625 " clip-rule="nonzero"/></clipPath><clipPath id="d87fca0298"><path d="M 183.4375 124.640625 C 179.589844 124.640625 176.476562 126.171875 176.476562 128.058594 C 176.476562 129.945312 179.589844 131.476562 183.4375 131.476562 C 187.28125 131.476562 190.398438 129.945312 190.398438 128.058594 C 190.398438 126.171875 187.28125 124.640625 183.4375 124.640625 Z M 183.4375 124.640625 " clip-rule="nonzero"/></clipPath></defs><rect x="-37.5" width="450" fill="#ffffff" y="-37.499999" height="449.999989" fill-opacity="1"/><rect x="-37.5" width="450" fill="#ffffff" y="-37.499999" height="449.999989" fill-opacity="1"/><path stroke-linecap="butt" transform="matrix(0.347222, 0, 0, 0.347222, 37.500002, 210.548043)" fill="none" stroke-linejoin="miter" d="M 201.757513 171.401652 C 217.878764 171.401652 234.506266 164.291651 251.640017 146.42665 L 250.121267 144.8629 C 238.826266 155.955401 225.326265 160.815401 211.950014 160.815401 C 184.241261 160.815401 168.28876 141.566649 168.79501 116.265397 C 169.51501 76.226643 201.757513 43.14039 238.826266 34.804139 C 256.173768 42.58914 275.59127 49.867891 283.37627 49.867891 C 290.823771 49.867891 296.707522 43.30914 296.707522 39.16914 C 296.707522 35.31039 278.85377 29.944139 258.581268 29.944139 C 206.955013 29.944139 154.788758 75.551643 154.788758 125.996648 C 154.788758 152.3104 173.31751 171.401652 201.757513 171.401652 Z M 257.883768 169.995402 L 267.063769 169.995402 C 268.458769 169.995402 269.516269 169.320402 270.191269 167.925402 L 279.54002 150.2404 C 289.957521 134.839149 303.108772 119.392897 315.090023 108.131646 C 326.002524 97.725395 334.676275 90.952895 340.897526 90.952895 C 344.205026 90.952895 345.600026 93.034145 345.600026 95.824145 C 345.600026 107.794146 315.090023 143.4679 315.090023 161.321651 C 315.090023 165.517902 317.160024 171.401652 324.607524 171.401652 C 329.816275 171.401652 340.053776 165.304152 352.710027 153.7054 L 351.315027 151.9729 C 344.036276 158.576651 338.658776 161.827901 335.013775 161.827901 C 331.886275 161.827901 330.153775 160.140401 330.153775 157.181651 C 330.153775 145.2004 360.495028 107.074146 360.495028 91.504145 C 360.495028 86.812894 357.738777 81.941644 351.652527 81.941644 C 343.350026 81.941644 328.972525 91.504145 313.695023 106.399146 C 304.515022 115.241647 295.155022 125.614148 286.481271 136.909149 L 318.217524 76.564143 C 330.322525 53.512891 339.333776 43.98414 355.117527 38.61789 C 371.576279 42.97164 378.855029 45.21039 385.12128 45.21039 C 393.963781 45.21039 400.016281 37.59414 400.016281 33.791639 C 400.016281 31.001639 393.795031 30.146639 385.12128 30.146639 C 348.896277 30.146639 315.765023 56.134141 299.475022 86.475394 L 255.971268 166.867902 C 255.127518 168.600402 255.971268 169.995402 257.883768 169.995402 Z M 384.23253 171.401652 C 406.946282 171.401652 445.241285 135.176649 445.241285 101.876646 C 445.241285 92.865395 440.932535 81.941644 427.050034 81.941644 C 400.353781 81.941644 364.466278 121.969148 364.466278 150.2404 C 364.466278 163.774151 372.971279 171.401652 384.23253 171.401652 Z M 378.855029 144.01915 C 378.855029 123.712898 393.581281 89.220395 415.451283 89.220395 C 425.317534 89.220395 431.201284 95.317895 431.201284 107.591646 C 431.201284 126.165398 416.981283 164.291651 395.145031 164.291651 C 383.20878 164.291651 378.855029 155.617901 378.855029 144.01915 Z M 460.653787 171.401652 C 466.582537 171.401652 476.943788 165.135402 489.60004 153.7054 L 488.250039 151.9729 C 481.140039 158.576651 475.042538 161.321651 471.408788 161.321651 C 468.315038 161.321651 465.693787 159.251651 465.693787 154.560401 C 465.693787 148.67665 470.385038 138.472899 476.100038 127.729148 L 497.93629 87.487894 L 519.266292 87.487894 L 520.447542 85.080394 L 499.33129 85.080394 L 511.987542 61.680392 L 510.255041 60.611642 L 470.013788 85.249144 L 470.013788 87.319144 L 484.605039 87.319144 L 463.961287 124.252898 C 453.037536 143.4679 450.292536 153.0304 450.292536 159.082901 C 450.292536 165.135402 453.712536 171.401652 460.653787 171.401652 Z M 570.217547 171.401652 C 575.595048 171.401652 585.618798 165.135402 598.27505 153.7054 L 596.88005 151.9729 C 589.803799 158.576651 584.437548 161.490401 580.792548 161.490401 C 577.665048 161.490401 576.101298 159.757901 576.101298 156.506651 C 576.101298 150.9154 579.060048 141.566649 587.182549 125.827898 C 593.955049 112.957897 603.47255 98.400395 608.850051 90.446645 C 610.076301 88.714144 609.525051 87.319144 607.623801 86.812894 L 605.38505 86.137894 C 596.362549 83.167894 584.223798 81.941644 577.665048 81.941644 C 543.521295 81.941644 506.958791 125.614148 506.576291 156.506651 C 506.576291 163.774151 509.535041 171.052902 517.871292 171.401652 C 528.963793 171.570402 552.026295 148.00165 580.241298 114.015397 C 570.386297 130.136648 560.868796 148.67665 560.868796 161.321651 C 560.868796 165.517902 562.770046 171.401652 570.217547 171.401652 Z M 520.965042 151.9729 C 520.965042 129.799148 540.382544 88.376644 565.177547 88.376644 C 573.311297 88.376644 584.943798 91.672895 592.897549 94.766645 L 590.658799 98.062895 C 557.392546 139.496649 534.678794 161.827901 526.882543 161.827901 C 522.191293 161.827901 520.965042 156.292901 520.965042 151.9729 Z M 616.128801 171.221652 C 634.488803 171.221652 655.143805 158.194151 655.987555 142.286649 C 656.707555 126.840398 640.035054 112.789147 640.755054 98.569145 C 641.092554 94.429145 643.331304 90.446645 649.428804 88.039144 C 660.510055 93.202895 667.620056 96.836645 673.166307 96.836645 C 679.050057 96.836645 683.910058 91.290395 683.910058 86.981644 C 683.910058 83.842894 674.516307 82.110394 667.788806 82.110394 C 649.597554 82.110394 630.011303 92.865395 629.460053 108.131646 C 628.953803 120.956647 644.557554 135.682899 644.557554 149.1829 C 644.557554 159.420401 636.221303 166.192902 626.535052 166.192902 C 615.622551 166.024152 611.257551 159.420401 611.257551 152.6479 C 611.257551 149.01415 612.652551 145.75165 614.396301 143.1304 L 613.170051 142.117899 C 603.3038 148.00165 598.7813 153.53665 598.4438 158.576651 C 597.9263 165.855402 603.47255 171.221652 616.128801 171.221652 Z M 682.155057 171.401652 C 687.870058 171.401652 697.938809 165.135402 710.58381 153.7054 L 709.18881 151.9729 C 702.078809 158.576651 697.770059 160.140401 694.293809 160.140401 C 690.997558 160.140401 689.096308 158.407901 689.096308 154.762901 C 689.096308 142.455399 720.663811 106.399146 720.663811 90.952895 C 720.663811 86.981644 718.368811 81.941644 711.97881 81.941644 C 705.89256 81.941644 695.520059 88.207894 682.875058 99.626645 L 684.225058 101.370396 C 692.055058 94.260395 697.770059 91.290395 701.235059 91.290395 C 704.362559 91.290395 705.55506 93.034145 705.55506 95.655395 C 705.55506 105.510396 672.626307 144.35665 672.626307 160.984151 C 672.626307 165.517902 675.213807 171.401652 682.155057 171.401652 Z M 718.031311 69.836643 L 719.088811 71.197893 L 752.017564 45.54789 C 754.976314 43.30914 755.651314 42.42039 755.651314 39.50664 C 755.651314 38.28039 755.313814 37.21164 754.425064 37.21164 C 753.412564 37.21164 751.848814 38.78664 749.385064 41.07039 Z M 718.031311 69.836643 " stroke="#343434" stroke-width="5.416344" stroke-opacity="1" stroke-miterlimit="4"/><g fill="#f48807" fill-opacity="1"><g transform="translate(87.027992, 269.575815)"><g><path d="M 20.53125 0.484375 C 26.125 0.484375 31.90625 -1.984375 37.859375 -8.1875 L 37.3125 -8.734375 C 33.40625 -4.875 28.703125 -3.1875 24.078125 -3.1875 C 14.4375 -3.1875 8.90625 -9.875 9.09375 -18.65625 C 9.328125 -32.5625 20.53125 -44.0625 33.40625 -46.953125 C 39.421875 -44.234375 46.15625 -41.703125 48.875 -41.703125 C 51.453125 -41.703125 53.5 -44 53.5 -45.4375 C 53.5 -46.765625 47.3125 -48.625 40.265625 -48.625 C 22.328125 -48.625 4.21875 -32.796875 4.21875 -15.28125 C 4.21875 -6.140625 10.65625 0.484375 20.53125 0.484375 Z M 20.53125 0.484375 "/></g></g></g><g fill="#f48807" fill-opacity="1"><g transform="translate(128.731292, 269.575815)"><g><path d="M -1.6875 0 L 1.5 0 C 1.984375 0 2.34375 -0.234375 2.59375 -0.71875 L 5.84375 -6.859375 C 9.453125 -12.21875 14.03125 -17.578125 18.171875 -21.484375 C 21.96875 -25.09375 24.984375 -27.453125 27.140625 -27.453125 C 28.28125 -27.453125 28.765625 -26.71875 28.765625 -25.765625 C 28.765625 -21.609375 18.171875 -9.203125 18.171875 -3.015625 C 18.171875 -1.5625 18.90625 0.484375 21.484375 0.484375 C 23.296875 0.484375 26.84375 -1.625 31.234375 -5.65625 L 30.75 -6.265625 C 28.234375 -3.96875 26.359375 -2.828125 25.09375 -2.828125 C 24.015625 -2.828125 23.40625 -3.4375 23.40625 -4.453125 C 23.40625 -8.609375 33.953125 -21.84375 33.953125 -27.265625 C 33.953125 -28.890625 32.984375 -30.578125 30.875 -30.578125 C 27.984375 -30.578125 22.984375 -27.265625 17.6875 -22.09375 C 14.5 -19.015625 11.25 -15.40625 8.25 -11.5 L 19.265625 -32.4375 C 23.46875 -40.453125 26.609375 -43.75 32.078125 -45.625 C 37.796875 -44.125 40.328125 -43.328125 42.5 -43.328125 C 45.5625 -43.328125 47.671875 -45.984375 47.671875 -47.3125 C 47.671875 -48.265625 45.5 -48.578125 42.5 -48.578125 C 29.90625 -48.578125 18.421875 -39.546875 12.765625 -29.015625 L -2.34375 -1.078125 C -2.640625 -0.484375 -2.34375 0 -1.6875 0 Z M -1.6875 0 "/></g></g></g><g fill="#f48807" fill-opacity="1"><g transform="translate(163.213238, 269.575815)"><g><path d="M 7.703125 0.484375 C 15.59375 0.484375 28.890625 -12.09375 28.890625 -23.65625 C 28.890625 -26.78125 27.390625 -30.578125 22.578125 -30.578125 C 13.296875 -30.578125 0.84375 -16.671875 0.84375 -6.859375 C 0.84375 -2.171875 3.796875 0.484375 7.703125 0.484375 Z M 5.84375 -9.03125 C 5.84375 -16.0625 10.953125 -28.046875 18.53125 -28.046875 C 21.96875 -28.046875 24.015625 -25.9375 24.015625 -21.671875 C 24.015625 -15.234375 19.078125 -1.984375 11.5 -1.984375 C 7.34375 -1.984375 5.84375 -5 5.84375 -9.03125 Z M 5.84375 -9.03125 "/></g></g></g><g fill="#f48807" fill-opacity="1"><g transform="translate(192.880957, 269.575815)"><g><path d="M 4.578125 0.484375 C 6.625 0.484375 10.234375 -1.6875 14.625 -5.65625 L 14.140625 -6.265625 C 11.671875 -3.96875 9.5625 -3.015625 8.3125 -3.015625 C 7.21875 -3.015625 6.3125 -3.734375 6.3125 -5.359375 C 6.3125 -7.40625 7.9375 -10.953125 9.9375 -14.6875 L 17.515625 -28.65625 L 24.921875 -28.65625 L 25.34375 -29.484375 L 18 -29.484375 L 22.390625 -37.625 L 21.78125 -37.984375 L 7.828125 -29.4375 L 7.828125 -28.703125 L 12.875 -28.703125 L 5.71875 -15.890625 C 1.921875 -9.203125 0.96875 -5.890625 0.96875 -3.796875 C 0.96875 -1.6875 2.171875 0.484375 4.578125 0.484375 Z M 4.578125 0.484375 "/></g></g></g><g fill="#f48807" fill-opacity="1"><g transform="translate(213.100737, 269.575815)"><g><path d="M 22.390625 0.484375 C 24.25 0.484375 27.75 -1.6875 32.140625 -5.65625 L 31.65625 -6.265625 C 29.1875 -3.96875 27.328125 -2.953125 26.0625 -2.953125 C 24.984375 -2.953125 24.4375 -3.546875 24.4375 -4.6875 C 24.4375 -6.625 25.453125 -9.875 28.28125 -15.34375 C 30.640625 -19.796875 33.953125 -24.859375 35.8125 -27.625 C 36.234375 -28.234375 36.046875 -28.703125 35.390625 -28.890625 L 34.609375 -29.125 C 31.484375 -30.15625 27.265625 -30.578125 24.984375 -30.578125 C 13.125 -30.578125 0.421875 -15.40625 0.296875 -4.6875 C 0.296875 -2.171875 1.328125 0.359375 4.21875 0.484375 C 8.0625 0.546875 16.0625 -7.640625 25.875 -19.4375 C 22.453125 -13.84375 19.140625 -7.40625 19.140625 -3.015625 C 19.140625 -1.5625 19.796875 0.484375 22.390625 0.484375 Z M 5.296875 -6.265625 C 5.296875 -13.96875 12.03125 -28.34375 20.640625 -28.34375 C 23.46875 -28.34375 27.5 -27.203125 30.28125 -26.125 L 29.484375 -24.984375 C 17.9375 -10.59375 10.046875 -2.828125 7.34375 -2.828125 C 5.71875 -2.828125 5.296875 -4.75 5.296875 -6.265625 Z M 5.296875 -6.265625 "/></g></g></g><g fill="#f48807" fill-opacity="1"><g transform="translate(248.24465, 269.575815)"><g><path d="M 3.1875 0.421875 C 9.5625 0.421875 16.734375 -4.09375 17.03125 -9.625 C 17.28125 -14.984375 11.5 -19.859375 11.734375 -24.796875 C 11.859375 -26.234375 12.640625 -27.625 14.75 -28.46875 C 18.59375 -26.65625 21.0625 -25.40625 22.984375 -25.40625 C 25.03125 -25.40625 26.71875 -27.328125 26.71875 -28.828125 C 26.71875 -29.90625 23.46875 -30.515625 21.125 -30.515625 C 14.8125 -30.515625 8 -26.78125 7.828125 -21.484375 C 7.640625 -17.03125 13.0625 -11.921875 13.0625 -7.21875 C 13.0625 -3.671875 10.171875 -1.328125 6.796875 -1.328125 C 3.015625 -1.390625 1.5 -3.671875 1.5 -6.015625 C 1.5 -7.28125 1.984375 -8.421875 2.59375 -9.328125 L 2.171875 -9.6875 C -1.265625 -7.640625 -2.828125 -5.71875 -2.953125 -3.96875 C -3.125 -1.4375 -1.203125 0.421875 3.1875 0.421875 Z M 3.1875 0.421875 "/></g></g></g><g fill="#f48807" fill-opacity="1"><g transform="translate(270.450297, 269.575815)"><g><path d="M 3.90625 0.484375 C 5.890625 0.484375 9.390625 -1.6875 13.78125 -5.65625 L 13.296875 -6.265625 C 10.828125 -3.96875 9.328125 -3.4375 8.125 -3.4375 C 6.984375 -3.4375 6.3125 -4.03125 6.3125 -5.296875 C 6.3125 -9.5625 17.28125 -22.09375 17.28125 -27.453125 C 17.28125 -28.828125 16.484375 -30.578125 14.265625 -30.578125 C 12.15625 -30.578125 8.546875 -28.40625 4.15625 -24.4375 L 4.640625 -23.828125 C 7.34375 -26.296875 9.328125 -27.328125 10.53125 -27.328125 C 11.609375 -27.328125 12.03125 -26.71875 12.03125 -25.828125 C 12.03125 -22.390625 0.609375 -8.90625 0.609375 -3.125 C 0.609375 -1.5625 1.5 0.484375 3.90625 0.484375 Z M 16.375 -34.78125 L 16.734375 -34.3125 L 28.171875 -43.21875 C 29.1875 -44 29.4375 -44.296875 29.4375 -45.328125 C 29.4375 -45.75 29.3125 -46.109375 29.015625 -46.109375 C 28.65625 -46.109375 28.109375 -45.5625 27.265625 -44.78125 Z M 16.375 -34.78125 "/></g></g></g><path stroke-linecap="butt" transform="matrix(0.347222, 0, 0, 0.347222, 37.500002, 259.490373)" fill="none" stroke-linejoin="miter" d="M 106.425004 170.00399 L 141.750007 170.00399 C 183.903761 170.00399 198.461263 149.562739 198.112513 130.145237 C 197.943763 113.168985 185.467511 99.117734 157.196259 97.722734 C 176.962511 94.088983 184.578761 83.345232 184.578761 71.532731 C 184.578761 57.52648 173.65501 48.683979 146.958758 48.683979 L 106.425004 48.683979 L 106.425004 50.922729 C 111.622504 52.49773 113.366255 56.46898 113.366255 70.688981 L 113.366255 147.998988 C 113.366255 162.21899 111.622504 166.19024 106.425004 167.75399 Z M 127.575006 152.307739 L 127.575006 99.972734 L 145.226258 99.972734 C 171.24751 99.972734 182.328761 114.530235 182.328761 134.453987 C 182.328761 153.713989 171.58501 167.41649 143.325007 167.41649 L 136.597507 167.41649 C 129.105006 167.41649 127.575006 164.79524 127.575006 152.307739 Z M 127.575006 97.385234 L 127.575006 51.260229 L 140.737507 51.260229 C 158.591259 51.260229 168.79501 60.28273 168.79501 74.660232 C 168.79501 87.316483 160.841259 97.385234 143.696257 97.385234 Z M 241.436267 171.736491 C 254.418768 171.736491 266.400019 163.40024 275.24252 154.220239 L 275.24252 163.06274 C 275.24252 168.09149 277.14377 170.00399 280.95752 170.00399 L 295.683772 170.00399 L 295.683772 167.75399 C 290.306271 166.19024 288.742521 162.21899 288.742521 147.998988 L 288.742521 83.165232 L 287.178771 81.938982 L 268.301269 90.275233 L 268.301269 92.187733 C 272.958769 94.257733 275.24252 95.990234 275.24252 108.140235 L 275.24252 150.912739 C 267.412519 159.24899 258.063768 165.68399 247.826267 165.68399 C 233.988766 165.68399 228.442515 156.841489 228.442515 137.075237 L 228.442515 83.165232 L 226.878765 81.938982 L 207.956263 90.275233 L 207.956263 92.187733 C 212.658764 94.257733 214.897514 95.990234 214.897514 108.140235 L 214.897514 140.168988 C 214.897514 160.13774 223.233765 171.736491 241.436267 171.736491 Z M 340.920026 171.567741 C 361.698778 171.398991 372.611279 159.080239 372.611279 144.522738 C 372.611279 127.175237 356.658777 123.203986 343.507526 118.883986 C 329.838775 114.361485 318.712524 109.872735 318.712524 98.948984 C 318.712524 90.106483 326.362524 84.402733 338.130026 84.402733 C 350.448777 84.402733 361.530028 92.356483 367.076278 104.832734 L 368.808778 104.495234 L 368.133778 86.810233 C 362.756278 84.571483 352.518777 82.107732 341.257526 82.107732 C 321.165024 82.107732 309.690023 92.693983 309.690023 106.396485 C 309.690023 122.180236 321.502524 126.668986 337.961275 131.877737 C 351.292527 136.186487 363.431278 140.168988 363.431278 152.656489 C 363.431278 162.38774 355.477527 168.77774 344.733776 168.77774 C 328.950025 168.60899 316.631274 158.742739 309.352523 142.283988 L 307.788773 142.621488 L 309.352523 163.56899 C 315.067523 167.41649 327.048774 171.567741 340.920026 171.567741 Z M 384.41253 170.00399 L 411.783782 170.00399 L 411.783782 167.75399 C 406.575032 166.19024 404.842532 162.21899 404.842532 147.998988 L 404.842532 83.165232 L 403.492532 81.938982 L 384.41253 90.275233 L 384.41253 92.187733 C 389.27253 94.257733 391.34253 95.990234 391.34253 108.140235 L 391.34253 147.998988 C 391.34253 162.21899 389.77878 166.19024 384.41253 167.75399 Z M 387.54003 61.84648 C 387.54003 67.043981 391.68003 71.363981 397.057531 71.363981 C 402.435031 71.363981 406.575032 67.043981 406.575032 61.84648 C 406.575032 56.30023 402.603781 52.14898 397.057531 52.14898 C 391.68003 52.14898 387.54003 56.30023 387.54003 61.84648 Z M 423.405033 170.00399 L 450.776286 170.00399 L 450.776286 167.75399 C 445.578785 166.19024 443.835035 162.21899 443.835035 147.998988 L 443.835035 100.861484 C 452.688786 93.582733 462.037537 87.822733 471.600038 87.822733 C 486.832539 87.822733 494.44879 97.722734 494.44879 115.756485 L 494.44879 147.998988 C 494.44879 162.21899 492.93004 166.19024 487.552539 167.75399 L 487.552539 170.00399 L 514.923792 170.00399 L 514.923792 167.75399 C 509.557541 166.19024 507.993791 162.21899 507.993791 147.998988 L 507.993791 112.280235 C 507.993791 92.018983 497.57629 82.107732 480.611289 82.107732 C 467.235037 82.107732 453.915036 89.937733 443.835035 98.060234 L 443.835035 83.165232 L 442.485035 81.938982 L 423.405033 90.275233 L 423.405033 92.187733 C 428.265034 94.257733 430.346284 95.990234 430.346284 108.140235 L 430.346284 147.998988 C 430.346284 162.21899 428.771284 166.19024 423.405033 167.75399 Z M 566.381297 171.736491 C 584.910048 171.736491 598.45505 159.41774 607.29755 147.278988 L 605.7338 145.748988 C 597.78005 154.771489 588.217549 160.81274 574.886297 160.81274 C 552.330045 160.81274 537.603794 144.522738 537.603794 120.785236 C 537.603794 117.995236 537.772544 115.418985 538.155044 112.786485 L 605.90255 112.786485 C 605.3963 96.327734 592.740049 82.107732 570.903797 82.107732 C 546.626295 82.107732 525.296293 101.030234 525.296293 129.256487 C 525.296293 157.853989 547.335045 171.736491 566.381297 171.736491 Z M 538.661294 110.547735 C 541.417544 95.990234 550.428795 85.077733 565.200047 85.246483 C 580.938798 85.246483 590.287549 98.948984 592.020049 110.547735 Z M 651.330055 171.567741 C 672.097557 171.398991 683.021308 159.080239 683.021308 144.522738 C 683.021308 127.175237 667.068806 123.203986 653.906305 118.883986 C 640.237554 114.361485 629.111303 109.872735 629.111303 98.948984 C 629.111303 90.106483 636.772553 84.402733 648.528804 84.402733 C 660.847555 84.402733 671.928806 92.356483 677.475057 104.832734 L 679.207557 104.495234 L 678.532557 86.810233 C 673.155057 84.571483 662.917556 82.107732 651.667555 82.107732 C 631.563803 82.107732 620.100052 92.693983 620.100052 106.396485 C 620.100052 122.180236 631.901303 126.668986 648.360054 131.877737 C 661.691306 136.186487 673.841307 140.168988 673.841307 152.656489 C 673.841307 162.38774 665.887556 168.77774 655.132555 168.77774 C 639.348803 168.60899 627.041302 158.742739 619.762552 142.283988 L 618.198802 142.621488 L 619.762552 163.56899 C 625.466302 167.41649 637.447553 171.567741 651.330055 171.567741 Z M 728.448812 171.567741 C 749.227564 171.398991 760.140065 159.080239 760.140065 144.522738 C 760.140065 127.175237 744.187563 123.203986 731.036312 118.883986 C 717.367561 114.361485 706.23006 109.872735 706.23006 98.948984 C 706.23006 90.106483 713.89131 84.402733 725.658811 84.402733 C 737.966313 84.402733 749.058814 92.356483 754.605064 104.832734 L 756.337564 104.495234 L 755.662564 86.810233 C 750.285064 84.571483 740.047563 82.107732 728.786312 82.107732 C 708.69381 82.107732 697.218809 92.693983 697.218809 106.396485 C 697.218809 122.180236 709.03131 126.668986 725.490061 131.877737 C 738.821313 136.186487 750.960064 140.168988 750.960064 152.656489 C 750.960064 162.38774 743.006313 168.77774 732.262562 168.77774 C 716.478811 168.60899 704.160059 158.742739 696.881309 142.283988 L 695.317559 142.621488 L 696.881309 163.56899 C 702.596309 167.41649 714.56631 171.567741 728.448812 171.567741 Z M 728.448812 171.567741 " stroke="#343434" stroke-width="5.416344" stroke-opacity="1" stroke-miterlimit="4"/><g fill="#f48807" fill-opacity="1"><g transform="translate(71.381292, 318.518146)"><g><path d="M 3.0625 0 L 15.34375 0 C 29.96875 0 35.03125 -7.109375 34.90625 -13.84375 C 34.84375 -19.734375 30.515625 -24.609375 20.703125 -25.09375 C 27.5625 -26.359375 30.21875 -30.09375 30.21875 -34.1875 C 30.21875 -39.0625 26.421875 -42.125 17.15625 -42.125 L 3.0625 -42.125 L 3.0625 -41.34375 C 4.875 -40.8125 5.484375 -39.421875 5.484375 -34.484375 L 5.484375 -7.640625 C 5.484375 -2.703125 4.875 -1.328125 3.0625 -0.78125 Z M 10.40625 -6.140625 L 10.40625 -24.3125 L 16.546875 -24.3125 C 25.578125 -24.3125 29.4375 -19.265625 29.4375 -12.34375 C 29.4375 -5.65625 25.703125 -0.90625 15.890625 -0.90625 L 13.546875 -0.90625 C 10.953125 -0.90625 10.40625 -1.8125 10.40625 -6.140625 Z M 10.40625 -25.21875 L 10.40625 -41.234375 L 14.984375 -41.234375 C 21.1875 -41.234375 24.734375 -38.09375 24.734375 -33.109375 C 24.734375 -28.703125 21.96875 -25.21875 16.015625 -25.21875 Z M 10.40625 -25.21875 "/></g></g></g><g fill="#f48807" fill-opacity="1"><g transform="translate(108.210178, 318.518146)"><g><path d="M 13.125 0.609375 C 17.640625 0.609375 21.78125 -2.28125 24.859375 -5.484375 L 24.859375 -2.40625 C 24.859375 -0.65625 25.515625 0 26.84375 0 L 31.953125 0 L 31.953125 -0.78125 C 30.09375 -1.328125 29.546875 -2.703125 29.546875 -7.640625 L 29.546875 -30.15625 L 29.015625 -30.578125 L 22.453125 -27.6875 L 22.453125 -27.03125 C 24.078125 -26.296875 24.859375 -25.703125 24.859375 -21.484375 L 24.859375 -6.625 C 22.15625 -3.734375 18.90625 -1.5 15.34375 -1.5 C 10.53125 -1.5 8.609375 -4.578125 8.609375 -11.4375 L 8.609375 -30.15625 L 8.0625 -30.578125 L 1.5 -27.6875 L 1.5 -27.03125 C 3.125 -26.296875 3.90625 -25.703125 3.90625 -21.484375 L 3.90625 -10.359375 C 3.90625 -3.4375 6.796875 0.609375 13.125 0.609375 Z M 13.125 0.609375 "/></g></g></g><g fill="#f48807" fill-opacity="1"><g transform="translate(142.270881, 318.518146)"><g><path d="M 13.609375 0.546875 C 20.828125 0.484375 24.609375 -3.796875 24.609375 -8.84375 C 24.609375 -14.859375 19.078125 -16.25 14.5 -17.75 C 9.75 -19.3125 5.890625 -20.890625 5.890625 -24.671875 C 5.890625 -27.75 8.546875 -29.734375 12.640625 -29.734375 C 16.90625 -29.734375 20.765625 -26.96875 22.6875 -22.625 L 23.296875 -22.75 L 23.046875 -28.890625 C 21.1875 -29.671875 17.640625 -30.515625 13.71875 -30.515625 C 6.734375 -30.515625 2.765625 -26.84375 2.765625 -22.09375 C 2.765625 -16.609375 6.859375 -15.046875 12.578125 -13.234375 C 17.21875 -11.734375 21.421875 -10.359375 21.421875 -6.015625 C 21.421875 -2.640625 18.65625 -0.421875 14.921875 -0.421875 C 9.453125 -0.484375 5.171875 -3.90625 2.640625 -9.625 L 2.109375 -9.515625 L 2.640625 -2.234375 C 4.640625 -0.90625 8.78125 0.546875 13.609375 0.546875 Z M 13.609375 0.546875 "/></g></g></g><g fill="#f48807" fill-opacity="1"><g transform="translate(169.050058, 318.518146)"><g><path d="M 1.921875 0 L 11.4375 0 L 11.4375 -0.78125 C 9.625 -1.328125 9.03125 -2.703125 9.03125 -7.640625 L 9.03125 -30.15625 L 8.546875 -30.578125 L 1.921875 -27.6875 L 1.921875 -27.03125 C 3.609375 -26.296875 4.328125 -25.703125 4.328125 -21.484375 L 4.328125 -7.640625 C 4.328125 -2.703125 3.796875 -1.328125 1.921875 -0.78125 Z M 3.015625 -37.5625 C 3.015625 -35.75 4.453125 -34.25 6.3125 -34.25 C 8.1875 -34.25 9.625 -35.75 9.625 -37.5625 C 9.625 -39.484375 8.25 -40.921875 6.3125 -40.921875 C 4.453125 -40.921875 3.015625 -39.484375 3.015625 -37.5625 Z M 3.015625 -37.5625 "/></g></g></g><g fill="#f48807" fill-opacity="1"><g transform="translate(182.590092, 318.518146)"><g><path d="M 1.921875 0 L 11.4375 0 L 11.4375 -0.78125 C 9.625 -1.328125 9.03125 -2.703125 9.03125 -7.640625 L 9.03125 -24.015625 C 12.09375 -26.546875 15.34375 -28.53125 18.65625 -28.53125 C 23.953125 -28.53125 26.609375 -25.09375 26.609375 -18.84375 L 26.609375 -7.640625 C 26.609375 -2.703125 26.0625 -1.328125 24.203125 -0.78125 L 24.203125 0 L 33.703125 0 L 33.703125 -0.78125 C 31.84375 -1.328125 31.296875 -2.703125 31.296875 -7.640625 L 31.296875 -20.046875 C 31.296875 -27.078125 27.6875 -30.515625 21.78125 -30.515625 C 17.15625 -30.515625 12.515625 -27.8125 9.03125 -24.984375 L 9.03125 -30.15625 L 8.546875 -30.578125 L 1.921875 -27.6875 L 1.921875 -27.03125 C 3.609375 -26.296875 4.328125 -25.703125 4.328125 -21.484375 L 4.328125 -7.640625 C 4.328125 -2.703125 3.796875 -1.328125 1.921875 -0.78125 Z M 1.921875 0 "/></g></g></g><g fill="#f48807" fill-opacity="1"><g transform="translate(217.734004, 318.518146)"><g><path d="M 16.4375 0.609375 C 22.875 0.609375 27.5625 -3.671875 30.640625 -7.890625 L 30.09375 -8.421875 C 27.328125 -5.296875 24.015625 -3.1875 19.375 -3.1875 C 11.5625 -3.1875 6.4375 -8.84375 6.4375 -17.09375 C 6.4375 -18.0625 6.5 -18.953125 6.625 -19.859375 L 30.15625 -19.859375 C 29.96875 -25.578125 25.578125 -30.515625 18 -30.515625 C 9.5625 -30.515625 2.171875 -23.953125 2.171875 -14.140625 C 2.171875 -4.21875 9.8125 0.609375 16.4375 0.609375 Z M 6.796875 -20.640625 C 7.765625 -25.703125 10.890625 -29.484375 16.015625 -29.4375 C 21.484375 -29.4375 24.734375 -24.671875 25.34375 -20.640625 Z M 6.796875 -20.640625 "/></g></g></g><g fill="#f48807" fill-opacity="1"><g transform="translate(250.049552, 318.518146)"><g><path d="M 13.609375 0.546875 C 20.828125 0.484375 24.609375 -3.796875 24.609375 -8.84375 C 24.609375 -14.859375 19.078125 -16.25 14.5 -17.75 C 9.75 -19.3125 5.890625 -20.890625 5.890625 -24.671875 C 5.890625 -27.75 8.546875 -29.734375 12.640625 -29.734375 C 16.90625 -29.734375 20.765625 -26.96875 22.6875 -22.625 L 23.296875 -22.75 L 23.046875 -28.890625 C 21.1875 -29.671875 17.640625 -30.515625 13.71875 -30.515625 C 6.734375 -30.515625 2.765625 -26.84375 2.765625 -22.09375 C 2.765625 -16.609375 6.859375 -15.046875 12.578125 -13.234375 C 17.21875 -11.734375 21.421875 -10.359375 21.421875 -6.015625 C 21.421875 -2.640625 18.65625 -0.421875 14.921875 -0.421875 C 9.453125 -0.484375 5.171875 -3.90625 2.640625 -9.625 L 2.109375 -9.515625 L 2.640625 -2.234375 C 4.640625 -0.90625 8.78125 0.546875 13.609375 0.546875 Z M 13.609375 0.546875 "/></g></g></g><g fill="#f48807" fill-opacity="1"><g transform="translate(276.828725, 318.518146)"><g><path d="M 13.609375 0.546875 C 20.828125 0.484375 24.609375 -3.796875 24.609375 -8.84375 C 24.609375 -14.859375 19.078125 -16.25 14.5 -17.75 C 9.75 -19.3125 5.890625 -20.890625 5.890625 -24.671875 C 5.890625 -27.75 8.546875 -29.734375 12.640625 -29.734375 C 16.90625 -29.734375 20.765625 -26.96875 22.6875 -22.625 L 23.296875 -22.75 L 23.046875 -28.890625 C 21.1875 -29.671875 17.640625 -30.515625 13.71875 -30.515625 C 6.734375 -30.515625 2.765625 -26.84375 2.765625 -22.09375 C 2.765625 -16.609375 6.859375 -15.046875 12.578125 -13.234375 C 17.21875 -11.734375 21.421875 -10.359375 21.421875 -6.015625 C 21.421875 -2.640625 18.65625 -0.421875 14.921875 -0.421875 C 9.453125 -0.484375 5.171875 -3.90625 2.640625 -9.625 L 2.109375 -9.515625 L 2.640625 -2.234375 C 4.640625 -0.90625 8.78125 0.546875 13.609375 0.546875 Z M 13.609375 0.546875 "/></g></g></g><g clip-path="url(#d8874cd282)"><g clip-path="url(#4335ea30a8)"><path fill="#000000" d="M 111.976562 141.226562 L 150.898438 141.226562 L 150.898438 206 L 111.976562 206 Z M 111.976562 141.226562 " fill-opacity="1" fill-rule="nonzero"/></g></g><g clip-path="url(#99f1c7b4fb)"><g clip-path="url(#0b0df00d80)"><path fill="#000000" d="M 120.898438 137.699219 L 131.851562 137.699219 L 131.851562 216.316406 L 120.898438 216.316406 Z M 120.898438 137.699219 " fill-opacity="1" fill-rule="nonzero"/></g></g><g clip-path="url(#d7215b91c5)"><g clip-path="url(#c8ab12fe41)"><path fill="#000000" d="M 168.074219 149.324219 L 217.875 149.324219 L 217.875 217.605469 L 168.074219 217.605469 Z M 168.074219 149.324219 " fill-opacity="1" fill-rule="nonzero"/></g></g><g clip-path="url(#e7595a7eb9)"><g clip-path="url(#137d91f02d)"><path fill="#000000" d="M 176.925781 169.800781 L 224.105469 169.800781 L 224.105469 178.050781 L 176.925781 178.050781 Z M 176.925781 169.800781 " fill-opacity="1" fill-rule="nonzero"/></g></g><g clip-path="url(#a9b9c8a523)"><g clip-path="url(#d69952b764)"><path fill="#000000" d="M 165.976562 150.675781 L 229.574219 150.675781 L 229.574219 160.273438 L 165.976562 160.273438 Z M 165.976562 150.675781 " fill-opacity="1" fill-rule="nonzero"/></g></g><g clip-path="url(#3b55918c0c)"><g clip-path="url(#e595e3415c)"><path fill="#242424" d="M 133.5 79.945312 L 202.703125 79.945312 L 202.703125 126.445312 L 133.5 126.445312 Z M 133.5 79.945312 " fill-opacity="1" fill-rule="nonzero"/></g></g><g clip-path="url(#8abd7b442e)"><g clip-path="url(#2b196c3ff3)"><path fill="#242424" d="M 161.113281 124.640625 L 175.046875 124.640625 L 175.046875 131.476562 L 161.113281 131.476562 Z M 161.113281 124.640625 " fill-opacity="1" fill-rule="nonzero"/></g></g><g clip-path="url(#8a3ba327d2)"><g clip-path="url(#d87fca0298)"><path fill="#242424" d="M 176.476562 124.640625 L 190.410156 124.640625 L 190.410156 131.476562 L 176.476562 131.476562 Z M 176.476562 124.640625 " fill-opacity="1" fill-rule="nonzero"/></g></g></svg>